ffmpeg version 3.4.8-0ubuntu0.2 Copyright (c) 2000-2020 the FFmpeg developers
  built with gcc 7 (Ubuntu 7.5.0-3ubuntu1~18.04)
  configuration: --prefix=/usr --extra-version=0ubuntu0.2 --toolchain=hardened --libdir=/usr/lib/x86_64-linux-gnu --incdir=/usr/include/x86_64-linux-gnu --enable-gpl --disable-stripping --enable-avresample --enable-avisynth --enable-gnutls --enable-ladspa --enable-libass --enable-libbluray --enable-libbs2b --enable-libcaca --enable-libcdio --enable-libflite --enable-libfontconfig --enable-libfreetype --enable-libfribidi --enable-libgme --enable-libgsm --enable-libmp3lame --enable-libmysofa --enable-libopenjpeg --enable-libopenmpt --enable-libopus --enable-libpulse --enable-librubberband --enable-librsvg --enable-libshine --enable-libsnappy --enable-libsoxr --enable-libspeex --enable-libssh --enable-libtheora --enable-libtwolame --enable-libvorbis --enable-libvpx --enable-libwavpack --enable-libwebp --enable-libx265 --enable-libxml2 --enable-libxvid --enable-libzmq --enable-libzvbi --enable-omx --enable-openal --enable-opengl --enable-sdl2 --enable-libdc1394 --enable-libdrm --enable-libiec61883 --enable-chromaprint --enable-frei0r --enable-libopencv --enable-libx264 --enable-shared
  libavutil      55. 78.100 / 55. 78.100
  libavcodec     57.107.100 / 57.107.100
  libavformat    57. 83.100 / 57. 83.100
  libavdevice    57. 10.100 / 57. 10.100
  libavfilter     6.107.100 /  6.107.100
  libavresample   3.  7.  0 /  3.  7.  0
  libswscale      4.  8.100 /  4.  8.100
  libswresample   2.  9.100 /  2.  9.100
  libpostproc    54.  7.100 / 54.  7.100
[rawvideo @ 0x55f1a5507a20] Estimating duration from bitrate, this may be inaccurate
Input #0, rawvideo, from '../../SVC-Encoder-20220109T061506Z-001/SVC-Encoder/Dataset/RollerCoaster/6f_2x2/tile_yuv/f5_t2_480x480.yuv':
  Duration: 00:00:10.00, start: 0.000000, bitrate: 82944 kb/s
    Stream #0:0: Video: rawvideo (I420 / 0x30323449), yuv420p, 480x480, 82944 kb/s, 30 tbr, 30 tbn, 30 tbc
Stream mapping:
  Stream #0:0 -> #0:0 (rawvideo (native) -> h264 (libx264))
Press [q] to stop, [?] for help
[libx264 @ 0x55f1a5514c60] using cpu capabilities: MMX2 SSE2Fast LZCNT SSSE3 SSE4.2 AVX
[libx264 @ 0x55f1a5514c60] profile High, level 3.0
Output #0, rawvideo, to 'RollerCoaster_f5_t2_480x480_x264_QP_24.h264':
  Metadata:
    encoder         : Lavf57.83.100
    Stream #0:0: Video: h264 (libx264), yuv420p, 480x480, q=-1--1, 30 fps, 30 tbn, 30 tbc
    Metadata:
      encoder         : Lavc57.107.100 libx264
    Side data:
      cpb: bitrate max/min/avg: 0/0/0 buffer size: 0 vbv_delay: -1
frame=   96 fps=0.0 q=30.0 PSNR=Y:nan U:nan V:nan *:nan size=     164kB time=00:00:01.76 bitrate= 761.4kbits/s speed=3.52x    frame=  156 fps=154 q=30.0 PSNR=Y:nan U:nan V:nan *:nan size=     256kB time=00:00:03.76 bitrate= 556.8kbits/s speed=3.73x    frame=  213 fps=141 q=30.0 PSNR=Y:nan U:nan V:nan *:nan size=     256kB time=00:00:05.66 bitrate= 370.1kbits/s speed=3.75x    frame=  279 fps=138 q=30.0 PSNR=Y:nan U:nan V:nan *:nan size=     512kB time=00:00:07.86 bitrate= 533.2kbits/s speed= 3.9x    frame=  300 fps=119 q=30.0 LPSNR=Y:inf U:inf V:inf *:inf size=     796kB time=00:00:09.93 bitrate= 656.7kbits/s speed=3.94x    
video:796kB audio:0kB subtitle:0kB other streams:0kB global headers:0kB muxing overhead: 0.000000%
[libx264 @ 0x55f1a5514c60] frame I:2     Avg QP:23.09  size: 30417  PSNR Mean Y:42.17 U:46.85 V:49.59 Avg:43.39 Global:43.33
[libx264 @ 0x55f1a5514c60] frame P:76    Avg QP:25.00  size:  7144  PSNR Mean Y:40.09 U:46.23 V:48.73 Avg:41.46 Global:41.40
[libx264 @ 0x55f1a5514c60] frame B:222   Avg QP:29.51  size:   953  PSNR Mean Y:39.42 U:45.93 V:48.61 Avg:40.83 Global:40.81
[libx264 @ 0x55f1a5514c60] consecutive B-frames:  1.3%  0.0%  0.0% 98.7%
[libx264 @ 0x55f1a5514c60] mb I  I16..4:  7.2% 82.1% 10.7%
[libx264 @ 0x55f1a5514c60] mb P  I16..4:  1.0%  3.9%  0.7%  P16..4: 36.5% 27.0% 15.8%  0.0%  0.0%    skip:15.1%
[libx264 @ 0x55f1a5514c60] mb B  I16..4:  0.0%  0.0%  0.0%  B16..8: 37.6%  5.8%  0.9%  direct: 0.6%  skip:55.0%  L0:36.8% L1:57.0% BI: 6.2%
[libx264 @ 0x55f1a5514c60] 8x8 transform intra:73.2% inter:64.8%
[libx264 @ 0x55f1a5514c60] coded y,uvDC,uvAC intra: 75.9% 75.8% 28.9% inter: 14.8% 8.1% 0.1%
[libx264 @ 0x55f1a5514c60] i16 v,h,dc,p:  9% 62% 14% 14%
[libx264 @ 0x55f1a5514c60] i8 v,h,dc,ddl,ddr,vr,hd,vl,hu:  5% 31% 13%  8%  8% 10%  5%  6% 12%
[libx264 @ 0x55f1a5514c60] i4 v,h,dc,ddl,ddr,vr,hd,vl,hu:  7% 36% 16%  5% 10% 12%  5%  3%  7%
[libx264 @ 0x55f1a5514c60] i8c dc,h,v,p: 36% 42%  9% 13%
[libx264 @ 0x55f1a5514c60] Weighted P-Frames: Y:1.3% UV:1.3%
[libx264 @ 0x55f1a5514c60] ref P L0: 62.4% 19.6% 13.8%  4.2%  0.1%
[libx264 @ 0x55f1a5514c60] ref B L0: 92.5%  6.6%  0.9%
[libx264 @ 0x55f1a5514c60] ref B L1: 93.4%  6.6%
[libx264 @ 0x55f1a5514c60] PSNR Mean Y:39.611 U:46.012 V:48.646 Avg:41.002 Global:40.963 kb/s:652.28
